# xmcd CD database file
#
# Track frame offsets:
#	150
#	14192
#	27835
#	39825
#	52310
#	64552
#	76412
#	89700
#	102557
#	115037
#
# Disc length: 1697 seconds
#
# Revision: 1
# Processed by: cddbd v1.5.1PL2 Copyright (c) Steve Scherf et al.
# Submitted via: CDex 1.51
#
DISCID=84069f0a
DTITLE=Various Artist - Vintage Country
DYEAR=1900
DGENRE=Country
TTITLE0=My Little Lady
TTITLE1=Daddy And Home
TTITLE2=Back In The Saddle Again
TTITLE3=It Makes No Difference Now
TTITLE4=Time Changes Everything
TTITLE5=New San Antonio Rose
TTITLE6=Great Speckled Bird
TTITLE7=Night Train To Memphis
TTITLE8=Mule Skinner Blues
TTITLE9=No Letter In The Mail
EXTD=
EXTT0=
EXTT1=
EXTT2=
EXTT3=
EXTT4=
EXTT5=
EXTT6=
EXTT7=
EXTT8=
EXTT9=
PLAYORDER=
